<svg xmlns="http://www.w3.org/2000/svg" viewBox="0 0 400 400" role="img" aria-label="MonteLuxe Real estate services"><defs><linearGradient id="gold" gradientUnits="userSpaceOnUse" x1="60" y1="60" x2="340" y2="340">
<stop offset="0" stop-color="#8f6a26"/><stop offset=".3" stop-color="#e8c97a"/>
<stop offset=".55" stop-color="#b8893a"/><stop offset=".8" stop-color="#f1d894"/>
<stop offset="1" stop-color="#9a722b"/></linearGradient></defs><rect width="400" height="400" fill="#0b0b0c"/><g fill="url(#gold)"><path d="M97.60040176244364 152.28297862620673C98.26336483097549 151.13259609427973 98.93641489483292 150.02922688520167 99.65647828153934 148.91577068079806C100.39500483200743 147.77376431730718 101.16208154156281 146.65022111757798 101.95770841020547 145.5451410816105L101.1012036375873 144.99124616875943L100.20317395481057 146.1920636773143C99.26821794451043 147.4499815040437 98.91895069391647 147.42656382562475 96.69203828510923 145.98643705221193L83.6160654231386 137.5303080493521L105.64043213323149 140.47654344716946L106.00969540846553 139.905540265424C104.92956591179541 138.19477544511028 104.2778667674454 137.4494055870844 103.38083604751392 136.01900987697508L95.87531906210812 123.95800565751702L94.23238458611763 121.11396657417062L107.30835744808829 129.57009557703043C109.56382001598278 131.02868551420497 109.68981847454687 131.27212829688597 108.93625041409594 132.68783842903457L108.39415332345986 133.71393332928693L109.25065809607803 134.26782824213802C109.9874738196567 133.0032450738619 110.73437653856094 131.78567522843477 111.52829258031416 130.55801838768207C112.45145076839928 129.13051043331845 113.42162227933339 127.69291548362928 114.40188078559308 126.30233385678908L113.54537601297491 125.748438943938L112.57349367515137 127.06345708884194C111.63853766485123 128.32137491557137 111.31782057334453 128.3164204009141 109.06235800545004 126.85783046373959L96.24333657526483 118.56786993473509C94.01642416645761 117.12774316132229 93.85178855348067 116.8188238920306 94.61544360925717 115.45012708273096L95.30524600998687 114.19563090978042L94.44874123736871 113.64173599692934C93.93348347893047 114.56371725615818 93.38967556140496 115.46723535162533 92.81731748479217 116.35229028333076C92.22649624441769 117.26589537412347 91.62558800871763 118.1324871420672 90.9776664501686 119.00916590533652L102.01420599712583 136.7548266377085L81.26604231151299 134.02654958524167C80.73232138931306 134.97708100355777 80.18851347178753 135.88059909902492 79.59769223141305 136.79420418981763C79.00687099103857 137.70780928061035 78.40596275533852 138.57440104855408 77.75804119678949 139.45107981182338L78.61454596940766 140.00497472467447L79.51257565218438 138.8041572161196C80.44753166248452 137.54623938939017 80.79679891307849 137.56965706780915 83.02371132188571 139.00978384122195L95.84273275207092 147.29974437022645C98.06964516087814 148.73987114363928 98.23428077385508 149.04879041293094 97.47062571807857 150.4174872222306L96.74389698982547 151.72908371335566Z M111.2788148799549 113.03367811103723C115.84391634158051 118.52361878877353 122.94325757803274 119.29731511706325 128.22405765852193 114.90612228254717C134.07999438144066 110.03668072347985 134.89388948202966 101.97531242986881 130.1114022365171 96.22394600557365C125.54630077489149 90.73400532783735 119.01684797575976 90.32658644767733 113.21319640215282 95.15255084996727C107.25268938061056 100.10894672258937 106.49632763444234 107.28231168674206 111.2788148799549 113.03367811103723ZM113.27174296775316 109.74037496117921C109.25010596584488 104.90399864984009 109.39441068176237 100.18522167386804 113.68179292532787 96.62009481812231C118.15217319148456 92.90279791365575 123.44467979514975 93.89659560441594 127.96630409999798 99.33425113284046C132.27054262095928 104.51048091470611 132.4088394240948 109.5691113612047 128.3567403524323 112.93859101145217C123.96478781024327 116.59067218075268 117.92379874293356 115.33488593753906 113.27174296775316 109.74037496117921Z M143.15882031730214 102.66645954616028C144.34895976950534 102.0778441502442 145.52138319030433 101.53392933856686 146.73850719534207 101.00773055829374C147.98683950820129 100.46803950160337 149.24866409747776 99.95955675273447 150.52398096317148 99.48228231168706L150.1192126706537 98.54603307704265L148.7055702972568 99.04606831593763C147.22951130821693 99.57308810766712 146.9520392813542 99.3596747193601 145.89964172080795 96.92542670928464L139.65271773961683 82.47598018793927L162.33421359610827 94.4134101337845L165.35883772271765 93.69843818137483C165.22391495854507 93.38635510316003 164.9009213359872 92.89629069944664 164.7659985718146 92.58420762123184L157.3182619894874 75.35722170377474C156.2658644289412 72.92297369369928 156.30047548029324 72.57463754121966 157.69558081082957 71.86036790256128L159.02826952572292 71.17308281673743L158.62350123320513 70.23683358209303C157.40215347318045 70.83894125442636 156.1673134367385 71.4098406189382 154.9189811238793 71.94953167562859C153.70185711884156 72.4757304559017 152.50244914520806 72.95722865193608 151.2583405873358 73.42101081656624L151.66310887985358 74.35726005121064L153.0767512532505 73.85722481231568C154.55281024229035 73.33020502058618 154.8302822691531 73.54361840889321 155.88267982969933 75.97786641896866L162.2375420222285 90.67697940288588L139.21193376824442 78.62902951362837C139.21193376824442 78.62902951362837 138.22253643938734 79.16789955886236 137.56716197513626 79.45123736362481C136.1003715075267 80.08537435523601 133.78168820730684 80.9766856102315 133.78168820730684 80.9766856102315L134.18645649982463 81.9129348448759L135.60009887322155 81.41289960598094C137.07615786226143 80.88587981425144 137.35362988912416 81.09929320255847 138.40602744967038 83.53354121263393L144.46405956101987 97.54607142447857C145.51645712156608 99.98031943455402 145.48184607021403 100.32865558703365 144.0867407396777 101.04292522569202L142.75405202478436 101.73021031151588Z M170.2197107208432 67.42100605507017C170.6749645673734 69.31243089767415 170.93867147850685 70.61372205072962 171.26610044232726 72.79933186806927L172.30846820136617 72.64317343917031L172.04501514178995 69.96666741724547C171.95774306003074 69.15463565447666 172.28227917259 68.79660170127542 173.2237726323671 68.65555537839893L178.43561142756164 67.87476323390413C178.70775626174492 69.00289318618239 178.8572405076712 69.77122544518227 179.0738473606601 71.2170904012685L181.2046543098298 85.44036659718658C181.60260643508846 88.0967231444148 181.4747815523787 88.39090811915047 179.9431544030531 88.72350137742366L178.34427772088628 89.06616937304517L178.4953987811111 90.07491236566348C180.13293759837268 89.76083176778842 181.7418890178878 89.48541330500812 183.3895025724977 89.23858223997428C185.0371161271076 88.99175117494043 186.68976705039165 88.7785448763272 188.34745534234986 88.59896334413457L188.19633428212506 87.59022035151628L186.5672333879133 87.73113974861413C185.00538202654275 87.86198440836367 184.79695924504642 87.61817312036958 184.39900711978777 84.96181657314138L182.26820017061806 70.7385403772233C182.04151858028087 69.22542588829583 181.96432123586996 68.48064365836825 181.8989623688845 67.35591426046564L187.11080116407908 66.57512211597083C188.05229462385614 66.43407579309434 188.4675033725503 66.68128763546407 188.62202498715075 67.48324466088457L189.15447617809184 70.11945173341613L190.19684393713075 69.96329330451715C189.86941497331034 67.7776834871775 189.74020712785932 66.45624285942539 189.62120094553526 64.51444433007981L182.37336350470594 65.70339026296021L177.06065041024954 66.49929451347751Z M200.7713619071884 65.14927739975533 202.39062109928628 65.37693431005351C203.94208313448698 65.599342838062 204.0905824975712 65.88365242137496 203.8832713971287 68.5616401188137L202.70500957309474 83.78210184223144C202.49769847265222 86.4600895396702 202.34373482084396 86.68688282423096 200.74000486918078 86.69914015421777L199.51178347159694 86.70636500834924L199.4330577372517 87.72332236180699C200.82814783593363 87.76311704184832 202.22061374347075 87.83681030033824 203.610455459863 87.94440213727675C206.2206460004046 88.14646485542957 208.8621109282499 88.38505034317583 211.4670530865018 88.65491021822584L217.13598826085115 88.99145440406863C217.28819134725197 87.02533685405031 217.633289139765 85.2105587646954 218.10873286378268 83.47407459681705L216.92228261808197 83.38222790674759L216.66356722691438 84.5216586182755C216.34733553699465 85.9635523446959 215.82530409167285 86.9802937917193 215.33760303766834 87.11304800793447C214.60736355223403 87.29523004303294 212.11964636976262 87.27315698170244 209.06877430938937 87.03697977866668C207.30604823006257 86.90052183913491 206.7011222002776 86.78548924163057 205.7338085721375 86.5059962277386L206.4685820926932 77.0143942621329L211.90022721790243 77.33256910996181C213.39176466964045 77.44803352033485 214.02534089558435 77.63348746588122 214.1760326369447 78.77050989269864C214.25389474555254 79.52677538314703 214.190698251642 80.78364697688977 214.190698251642 80.78364697688977L215.20765560509975 80.86237271123501C215.2369535205617 79.60287692634743 215.30015001447225 78.34600533260469 215.39724508683142 77.09175793000679C215.49958854148025 75.76971337051171 215.63320638343282 74.48419158061007 215.80334699497882 73.16739540340467L214.78638964152108 73.08866966905941C214.78638964152108 73.08866966905941 214.6997913337413 74.20732275786295 214.48043880974635 74.83827479266199C214.120027683233 75.96983293075537 213.46545792813038 76.05556761279774 212.00781905484092 75.94272739356954C210.31289013241135 75.81151783632745 208.07820814594913 75.6044226423193 206.5945432676456 75.3872624966005L207.29520230331838 66.33634205082647C208.3644275732386 66.18040192717643 208.94332759800952 66.19111459819014 211.28232951096234 66.37218378718423C213.21454848253208 66.52176268244021 215.09974791992903 66.83821027879432 216.1608847099804 67.22727160146658C216.95608125473268 67.52754223808293 217.0472802254991 67.67100912531183 216.98692382916775 68.45067642962943L216.81635140475302 70.6540840287879L218.00280165045373 70.74593071885737C218.16025311914424 68.71201601194186 218.45570718633962 67.09800520213365 218.94405595964716 65.63533385298888L214.7485048054563 65.20823841568271C212.13306588262503 65.07397285442707 209.48635257249003 64.903184523578 206.87616203194847 64.70112180542519C204.87614590348156 64.54629452787952 202.84485538771088 64.35494448074041 200.85008764153366 64.13232004629756Z M230.92470475751804 68.74080976685732 232.45197171822116 69.32500462368567C233.9143347457775 69.88891452396784 233.9954547524597 70.19924264792034 233.1941989688858 72.76294800721757L228.38666426744234 88.14518016300099C228.0925323975228 89.08628719362908 227.57733017635442 89.70894815378571 226.9769588849956 89.80628423400337L225.80866826885133 90.01109887271178L225.57539126857034 90.75749410389959C226.66659112203814 91.0272919537647 227.74764849723286 91.3295417702032 228.8185633941545 91.6642435532151C231.34981678687834 92.45535685851593 233.81819077820955 93.3336835852638 236.3494441709334 94.12479689056462C237.71242676701547 94.5507809780343 237.38790710128163 94.44935619530342 241.83180199008095 95.73137734072317C242.49509232183738 94.40694012597933 242.94945949286972 93.40904710872343 244.25779955109303 90.36263113383619L243.2193366207448 90.03807182909739L242.32278910820983 91.53896041848947C241.63516475639898 92.71330481039361 241.19500894665043 93.32379876052303 240.9495847558447 93.42520372375142C240.41614192938678 93.6503231385085 237.52182348959087 92.99509129476357 233.66003946735833 91.78813638026615C232.49176867071654 91.42300716243501 231.7656583960749 91.12482622900723 230.98276213480548 90.66640999446666L236.27713579335716 73.72648344316089C237.07839157693107 71.16277808386366 237.3217912359827 70.95387474264203 238.84500913317754 71.3230728434839L240.43313096351918 71.71255590087195L240.7374053117118 70.73899690367047C239.12697399306987 70.30691940143595 237.52668515270102 69.84238993262804 235.93653879060528 69.34540849724677C234.34639242850952 68.84842706186548 232.79884051126024 68.3291361381839 231.22897910571066 67.76725076965585Z M259.8543103530864 78.86303322207374 261.18861316948716 79.8082654655701C262.46508439754564 80.7177275065255 262.46658255823723 81.0384793662466 261.0536595578692 83.32282710576241L254.70444860684827 93.58793403649801C253.30941070775071 95.84336598184274 252.8462144329538 97.75566648412115 253.2474956619063 99.5630163050718C253.67083827666 101.46396791690559 255.348272536127 103.34104178470258 258.23985195323564 105.12955191175074C261.2181787528575 106.97171734261033 263.58895567734254 107.59855765268074 265.7128810734836 107.07326067798243C267.91252315923725 106.55481811165401 269.8900532262873 104.77960577677314 271.8752994673107 101.56995262378258L277.0440937344799 93.21328810833867C278.4391316335774 90.95785616299395 278.7446765158672 90.78703952180658 280.1284583515486 91.52300679773546L281.4544085988878 92.22320387112339L281.9909616370023 91.35573004599081C280.79855966761784 90.69815758351372 279.6240427995039 90.01166932686554 278.4674110326605 89.29626527604628C277.3396950599881 88.5987463264975 276.25877998275735 87.89019668404814 275.16683421262593 87.13484614615717L274.6302811745115 88.00231997128977L275.8489208142278 88.87601180970421C277.12539204228636 89.78547385065961 277.10900510170745 90.1351415045518 275.7139672026099 92.39057344989652L269.99073479605585 101.64362758464411C267.46893551691795 105.72075456276725 264.3222448294323 106.41301009166621 260.1294546746248 103.8196704074464C256.1101592848438 101.33364133084947 255.35889220445515 98.67016657521084 257.64818516707675 94.9689449213118L263.8006600041224 85.02191172645816C265.21358300449043 82.73756398694235 265.5012427855097 82.59566313992606 266.8850246211911 83.33163041585495L268.3266380452147 84.1033678943248L268.8631910833291 83.23589406919221C267.410546966405 82.4173556952808 265.9757879507512 81.56990152719828 264.55891403636804 80.69353156494469C263.1420401219848 79.8171616026911 261.77196710304315 78.92976094753692 260.39086339120087 77.99555939694115Z M273.84809075609894 115.23192425990213C274.29459183731586 115.60521340315721 274.73974487244544 116.02656690713567 275.1368335468516 116.44657236502678C275.53392222125785 116.8665778229179 275.9063046922587 117.30994143812703 276.2539809598542 117.77666321065416L288.53242698013264 115.61972015922512L285.2702296846068 127.31325772512297C285.90359602436786 127.88419649562094 286.4888980034055 128.45378722003156 287.0728519363558 129.07144230516553C287.6334477119881 129.66439118689416 288.145979126897 130.25599202253545 288.6571624957186 130.8956572189001L289.39834859787936 130.19491249935976L288.77172248855504 129.38365192524492C288.37732990632355 128.86751774590707 288.4456149583571 128.14790038114384 288.95951834394145 126.11797148823035L291.76621960947205 115.2293956398437L300.50226614476065 114.17565424212259C302.77072742137057 113.90256188316432 303.3955641107744 113.92008648229984 303.7706426739499 114.26732137606223L304.8024457342045 115.21020124372794L305.5436318363653 114.50945652418757L303.1844579472461 112.01412998024625L292.19252392396675 113.75018482611797L294.5392197228189 105.54242880954135C294.9408178339083 104.08657615313362 295.01045093202924 103.31889442764702 294.8137079770406 102.61589498976507L290.85314030325617 99.76299055719569L290.2574953293529 100.41971505427472L291.2344937984473 101.60156867946993C291.7456771672689 102.2412338758346 291.74790796102246 103.87677018651658 291.1598859652221 105.9767735513841L288.887308776586 114.11445509600668L277.8347366039641 115.43994080659871C276.41077175523156 115.61646307027713 275.8587056299565 115.57692835991095 275.2707075587441 115.10346635694708L274.5892768582597 114.53117954036176Z M311.698126826514 124.44312838366062 312.4252054645569 125.90777327376256C313.11830770026825 127.31351481858931 312.9676353249962 127.59667879110324 310.6409531866259 128.9387466831969L297.4171521723443 136.56644900661544C295.09047003397404 137.9085168987091 294.8163555208479 137.90962761631891 293.90010337550757 136.59335180701476L293.20017311562805 135.58405619555845L292.3166229365001 136.09370223053074C293.07204252957075 137.26724440634078 293.7980104500038 138.45777478331658 294.49452669779924 139.6652933614581C295.80261818756145 141.93307215455317 297.09824620585175 144.24729082145157 298.34743435033874 146.54904601687812L301.2728189629306 151.41651074385982C302.9810159759113 150.43119507624675 304.67333550533607 149.69054224912222 306.3747044941486 149.10167251487957L305.7801174533476 148.07086397256364L304.69381957784054 148.5012044490109C303.3254684474294 149.05498706331224 302.1916199805092 149.1987495551615 301.80652680100076 148.87136714406384C301.24361286805697 148.37179942683446 299.8562158197698 146.3067683301185 298.3272777148529 143.65611779273468C297.4438912542343 142.12463081557956 297.19700697852613 141.5605243057713 296.88105918054515 140.6044965922865L305.1275275190727 135.8478002658785L307.9339947235043 140.509103284397C308.681475574797 141.80497688045133 308.88644470639576 142.43251146522869 308.0334569175152 143.19928381216138C307.453472924151 143.6908309283581 306.3807492377256 144.34884604412818 306.3807492377256 144.34884604412818L306.8903952726979 145.23239622325613C307.9461307579575 144.54492943484846 309.01885444438295 143.8869143190784 310.1085663319741 143.2583508759459C311.2571815648404 142.5958110304819 312.3933333262349 141.9797110588213 313.5759249614327 141.37607455863252L313.0662789264604 140.49252437950457C313.0662789264604 140.49252437950457 312.09437372941966 141.05313501797409 311.4498509434766 141.22865247693522C310.3125884644723 141.57063793546968 309.8720059517728 141.07900896001829 309.1415133016459 139.81258703660157C308.2921032433587 138.34000340472164 307.2003336390573 136.3792048094744 306.5412078056774 135.03236660992286L314.40480439991615 130.49651689866954C315.13760034451735 131.2906013422749 315.4558514369726 131.77429157594833 316.6280373174088 133.8064569879426C317.5963647838562 135.4852023282857 318.40044568594976 137.21943700181993 318.67900306951515 138.31478433671475C318.8805581890298 139.1405418881773 318.81371610197664 139.29684971075307 318.1363276313119 139.68757833756516L316.221968909868 140.79181141333842L316.816555950669 141.82261995565437C318.5836563089249 140.80332788570982 320.0822776013583 140.13515259294215 321.56502141023583 139.71164014066304L319.5468394835965 136.00866813010362C318.17984464855914 133.77486573934004 316.82531328499357 131.49462347477314 315.5172217952314 129.22684468167805C314.51491792645254 127.48919599605975 313.5250775291456 125.70510743663812 312.58167700564195 123.93348234868833Z"/><path d="M115.27057866203674 301.24519524270715 116.3153581404616 295.73646173658597 114.90315268049284 294.5106657752472 111.72722678066059 298.1695617397117 110.55894771832278 297.1554941716951 118.32603667335114 288.2072468480749 121.21463875055997 290.71455676899507Q122.22885903544662 291.5949011412293 122.62766545919345 292.54885957133945Q123.02647188294027 293.5028180014496 122.86049854837276 294.3942538388561Q122.69452521380524 295.28568967626256 122.03705283454173 296.04314533206394Q121.23471365984726 296.96749799677076 120.08902907382603 297.211141341341Q118.9433444878048 297.4547846859112 117.67718648342748 296.76095408125957L116.66994589055123 302.4598476043974ZM115.71663545483584 293.5734748790861 117.43695846970687 295.06671723198974Q118.38698759732222 295.89134360598126 119.26874354830139 295.8350613448965Q120.15049949928056 295.7787790838117 120.83025907784115 294.99564696510174Q121.52116225605027 294.1996766149375 121.43144919601988 293.35643535832116Q121.3417361359895 292.51319410170476 120.3788687769199 291.6774241280647L118.65854576204887 290.1841817751611Z M128.9370514376021 306.459973161832 122.89276715797313 302.1114626643133Q122.15758923810813 303.2788817947643 122.40274706569754 304.4081391345995Q122.64790489328695 305.5373964744347 123.6414858707602 306.2522201178624Q124.45567028285635 306.8379783812268 125.27378276625157 306.85064584004454Q126.0918952496468 306.86331329886235 126.76938390571968 306.38737515068283L128.12175801394716 307.36032955423724Q127.03384343984713 308.2320903468064 125.63161962230674 308.2599222623438Q124.22939580476637 308.28775417788125 122.87702169653889 307.31479977432684Q121.8006423042762 306.5404074939468 121.2994422682396 305.44683821224726Q120.79824223220301 304.3532689305477 120.95561432650196 303.1157022560061Q121.11298642080091 301.87813558146445 121.95687544429198 300.7051580386141Q122.80076446778305 299.5321804957637 123.90535427908118 298.9865530140728Q125.0099440903793 298.4409255323819 126.20114750444682 298.57541317610384Q127.39235091851435 298.70990081982575 128.49632978237352 299.5041493125232Q129.57270917463623 300.27854159290325 130.06313771313418 301.34341897956654Q130.55356625163213 302.40829636622976 130.41133534863116 303.5520440963834Q130.2691044456302 304.695791826537 129.52449648372632 305.73077201140495Q129.26636572359965 306.0895651421592 128.9370514376021 306.459973161832ZM127.67666666495924 300.5270165443528Q126.72448489488072 299.8419772194012 125.61836103768249 299.96765244582593Q124.51223718048425 300.0933276722506 123.64124674951653 301.1002103214023L128.41595533570745 304.5353350523189Q128.9322168559608 303.8177487908104 128.98712691355325 303.0719122567259Q129.04203697114568 302.3260757226414 128.6905454772102 301.6648206813063Q128.33905398327477 301.00356563997127 127.67666666495924 300.5270165443528Z M137.74569298649212 305.5395719352125Q138.8029552176464 306.1563154593574 139.3156753426837 307.0655173474888Q139.828395467721 307.9747192356202 139.8075881395988 308.88758946467607L140.66417636757782 307.419169699184L142.01512255183053 308.2072308689247L137.32101906250557 316.2541711838212L135.97007287825286 315.4661100140805L136.84379287079145 313.9683218532786Q136.03615718467867 314.44188451916045 134.980727318327 314.4461620433217Q133.92529745197538 314.45043956748293 132.882719418476 313.84226192561783Q131.8107729896668 313.21695251919317 131.2527770900989 312.18293434910845Q130.69478119053105 311.1489161790237 130.7523008184501 309.90320333394095Q130.80982044636914 308.65749048885823 131.52078867559172 307.43870208349983Q132.24032278709407 306.2052294804865 133.28351903212805 305.5640229269119Q134.32671527716204 304.9228163733373 135.50023091742247 304.91853945106254Q136.6737465576829 304.91426252878784 137.74569298649212 305.5395719352125ZM137.33330384417727 306.8538094309875Q136.5844097637763 306.41694943471816 135.76209228755468 306.4096031226851Q134.93977481133305 306.40225681065203 134.17863928508967 306.86358284578364Q133.41750375884632 307.32490888091525 132.88641905749935 308.2353291355203Q132.34676847387257 309.1604335877803 132.31555988923535 310.05739583572887Q132.28435130459812 310.95435808367745 132.69122349024994 311.6738879819742Q133.09809567590176 312.39341788027093 133.84698975630272 312.8302778765402Q134.59588383670365 313.2671378728095 135.42982635289263 313.27142502715503Q136.26376886908164 313.2757121815005 137.0291873364649 312.80704404754147Q137.79460580384816 312.3383759135824 138.32569050519513 311.42795565897734Q138.85677520654212 310.51753540437227 138.88370085003945 309.6279152552512Q138.91062649353677 308.73829510613007 138.4964122090575 308.01448226669345Q138.08219792457822 307.2906694272568 137.33330384417727 306.8538094309875Z M148.03586088466764 307.5241827265029 142.48949728137652 318.8155179345324 141.10096822201072 318.1334651130466 146.64733182530182 306.8421299050171Z M161.3037326995497 322.0092924371423 154.28944432653833 319.51075794263613Q153.90745836263434 320.8364429442034 154.4566324341801 321.853169229465Q155.00580650572587 322.8698955147266 156.15884021087842 323.2806135138235Q157.10368727482287 323.61717409641676 157.8931258349436 323.4021037363144Q158.6825643950643 323.18703337621207 159.20119727341012 322.54164361994174L160.77060426097887 323.10067645204583Q159.96763949095094 324.24031348991974 158.6283233035153 324.65653266303997Q157.28900711607966 325.0727518361602 155.7196001285109 324.51371900405604Q154.4704802812623 324.0687745050344 153.68525190767215 323.1574503852455Q152.900023534082 322.24612626545667 152.7074559127127 321.0135456550298Q152.51488829134342 319.780965044603 152.99976370694392 318.41974469824237Q153.48463912254442 317.05852435188166 154.3942099269526 316.22755566909734Q155.3037807313608 315.3965869863131 156.48546606241254 315.19491329348944Q157.66715139346428 314.9932396006658 158.9482999547449 315.44959293299564Q160.1974198019935 315.89453743201733 160.96433105671377 316.781290569809Q161.73124231143402 317.6680437076007 161.9122961235339 318.8062914913122Q162.09334993563382 319.94453927502366 161.66551868657453 321.14561605122424Q161.5172038535673 321.56198933364044 161.3037326995497 322.0092924371423ZM158.44500244431333 316.65988075661176Q157.3400118102088 316.26627600747725 156.312321162151 316.69424350845657Q155.28463051409318 317.12221100943594 154.72758551595948 318.33139994010565L160.26855304349817 320.30512810243243Q160.56518270951258 319.47238153760003 160.41076812267403 318.7406415664549Q160.2563535358355 318.0089015953098 159.7350225584586 317.47129717565974Q159.21369158108172 316.9336927560097 158.44500244431333 316.65988075661176Z M163.6832042604256 324.10982459181076 165.2289100137037 324.51528448413427Q165.11783519910634 325.2067289038544 165.57299361706043 325.7830769450288Q166.0281520350145 326.3594249862032 166.9489980156908 326.6009755603534Q167.80406928346167 326.82527252206427 168.3965879017785 326.57647001615265Q168.98910652009536 326.32766751024104 169.14007562893923 325.75213877231835Q169.29535814089292 325.16016635616927 168.84464499207124 324.73437308769354Q168.39393184324956 324.3085798192178 167.36553325495026 323.7400392810114Q166.43148333289935 323.2138228396903 165.86957287249646 322.776436129227Q165.3076624120936 322.3390494187638 164.99564686193793 321.6860112908869Q164.68363131178228 321.0329731630099 164.91224167660297 320.1614582170127Q165.0934046072156 319.47082373150545 165.65546567171853 319.00313007132837Q166.21752673622146 318.5354364111513 167.06236069838553 318.3967575505628Q167.90719466054964 318.2580786899743 168.87737167590504 318.51256947345394Q170.37374639450405 318.90508915644796 171.09617583212844 319.9030489290108Q171.81860526975282 320.9010087015737 171.5393077338723 322.233756572122L170.0429330152733 321.84123688912797Q170.17907831431665 321.1212185160649 169.77325093104167 320.55781068422Q169.3674235477667 319.99440285237506 168.49590860176946 319.7657924875544Q167.6901683686777 319.554435735173 167.12272023480685 319.7746642877417Q166.555272100936 319.9948928403104 166.408616395202 320.5539779000067Q166.2921545112367 320.9979572121185 166.50443432577612 321.3612061355018Q166.71671414031556 321.72445505888504 167.10718088066102 322.0114188626722Q167.49764762100645 322.29838266645936 168.21442625721778 322.71488042956383Q169.115588822816 323.23247006466534 169.65714716898913 323.6469429922374Q170.19870551516226 324.0614159198096 170.50074749175633 324.68547512723717Q170.80278946835037 325.30953433466476 170.6035629910855 326.13603164909273Q170.4094598511434 326.87599716927906 169.84308538353065 327.36013450768246Q169.27671091591787 327.8442718460859 168.440098792867 327.98510740822934Q167.60348666981608 328.12594297037276 166.63330965446067 327.8714521868931Q165.5973579261998 327.59970779097415 164.8679121817429 327.0304985536161Q164.138466437286 326.4612893162581 163.82766578844974 325.7031190143582Q163.51686513961346 324.94494871245837 163.6832042604256 324.10982459181076Z M177.01091745499951 321.80864570603825 175.98813304645057 327.2035500660459Q175.86147243858073 327.87164967719235 176.0931672725717 328.2010715251349Q176.32486210656262 328.53049337307755 177.0263666982664 328.66348701134086L178.14543354693672 328.87564352952285L177.90161187678726 330.16173528097977L176.53200767393704 329.9020810348466Q175.26261841275877 329.6614258798939 174.73875181405575 328.9565111426644Q174.21488521535272 328.2515964054349 174.4682064310924 326.91539718314203L175.49099083964134 321.5204928231344L174.30511402985638 321.2956702441654L174.54260266961234 320.04298347326585L175.7284794793973 320.2678060522348L176.16545857654822 317.9628623937795L177.68538519190642 318.2510152766834L177.24840609475547 320.5559589351387L179.63686220460406 321.0087706082733L179.3993735648481 322.26145737917295Z M186.16808563051762 321.74924283491583Q187.38491867174326 321.88150526261757 188.22369667071837 322.50277933131457Q189.06247466969344 323.1240534000116 189.41554862760853 323.96613640081506L189.5992464438609 322.27609051022387L191.1540886632048 322.4450925011761L190.1474246301418 331.7065439816157L188.59258241079795 331.5375419906635L188.77995418337537 329.8136951822605Q188.2354668411146 330.5753187993561 187.27342747752883 331.00940492319734Q186.31138811394305 331.44349104703855 185.11145553162333 331.31306559749936Q183.87772203149177 331.17896619163514 182.94672616989382 330.46216795943343Q182.01573030829587 329.7453697272317 181.5605182860589 328.5843826408217Q181.10530626382194 327.42339555441157 181.25777545131143 326.0206574652209Q181.4120816169634 324.6010189171243 182.10334533308466 323.5902970341247Q182.79460904920592 322.57957515112514 183.864480589796 322.0973592900884Q184.93435213038606 321.6151434290516 186.16808563051762 321.74924283491583ZM186.32717261598467 323.1174446954083Q185.46524921178315 323.0237588091196 184.7113424618343 323.3522167400355Q183.95743571188544 323.68067467095136 183.45042324376158 324.4121713265602Q182.9434107756377 325.14366798216906 182.82951812956122 326.1914964343356Q182.7137885053222 327.25622534540804 183.05088049341265 328.088021138596Q183.3879724815031 328.919816931784 184.05278579056957 329.41103125780484Q184.71759909963603 329.9022455838257 185.57952250383752 329.9959314701144Q186.44144590803904 330.0896173564031 187.20472137652212 329.7536276851155Q187.9679968450052 329.4176380138279 188.47592780221032 328.6776911287661Q188.98385875941548 327.9377442437043 189.09775140549195 326.88991579153776Q189.2116440515684 325.84208733937123 188.8736335743967 325.0187417756362Q188.535623097225 324.1953962119012 187.86235955870558 323.7032633967991Q187.18909602018616 323.21113058169703 186.32717261598467 323.1174446954083Z M196.48559031321798 323.9092127710989 196.3253964814507 329.39787553503913Q196.30555823603058 330.077586094041 196.5862519473706 330.36639795393285Q196.86694565871062 330.6552098138246 197.58064174566258 330.6760399715157L198.71915693199074 330.7092690325944L198.68096830955704 332.017711858673L197.28756166360319 331.97704345556184Q195.99611160149962 331.93935078926364 195.3677450351904 331.32575771698794Q194.7393784688812 330.7121646447122 194.7790549597214 329.35274352670837L194.9392487914887 323.8640807627682L193.73276254926037 323.8288678771475L193.76995925942305 322.55441057901896L194.9764455016514 322.58962346463966L195.04488744835072 320.2446220360832L196.59122897008 320.2897540444139L196.52278702338066 322.63475547297037L198.9527522718124 322.7056772003472L198.9155555616497 323.98013449847576Z M210.40464040564578 327.5751229747759 202.96662228779266 327.91980032896225Q203.1152728729031 329.2913895544763 204.00865811164067 330.0243201891245Q204.90204335037822 330.7572508237727 206.12473126016232 330.70059153267357Q207.12665607512426 330.65416239135624 207.77579554639155 330.15607962028014Q208.42493501765884 329.6579968492041 208.66044445051975 328.8642441754867L210.32465854994808 328.787124584824Q210.01322729969226 330.1459974914507 208.9313833116875 331.03853311293483Q207.84953932368273 331.9310687344189 206.18532522425443 332.00818832508156Q204.8607466553217 332.06956922377225 203.78882468809684 331.52360352321887Q202.71690272087196 330.97763782266543 202.07178326089507 329.90985594776816Q201.4266638009182 328.8420740728709 201.35977436003728 327.39862306826467Q201.29288491915636 325.9551720636585 201.81990150668852 324.84158258972025Q202.34691809422068 323.72799311578206 203.36414810684292 323.09372534786337Q204.38137811946515 322.4594575799447 205.73992024144744 322.3965028120568Q207.0644988103802 322.33512191336604 208.1101611782193 322.8652862392926Q209.15582354605837 323.3954505652191 209.75455389173032 324.380290893989Q210.35328423740225 325.36513122275886 210.41230433229717 326.6387644621173Q210.43276463186075 327.0802906517615 210.40464040564578 327.5751229747759ZM205.73258709944045 323.7072473428591Q204.5608445192307 323.76154583016245 203.77185348011727 324.5469103252848Q202.98286244100387 325.33227482040706 202.92537090402112 326.66236193153003L208.8010655815946 326.3900825604148Q208.76014498246747 325.5070301811263 208.3400540749501 324.8883130572149Q207.9199631674327 324.26959593330344 207.23383777003127 323.9695352077149Q206.54771237262983 323.66947448212636 205.73258709944045 323.7072473428591Z M219.36752550992162 327.85561062629415 220.9401426186277 327.5719216603385Q221.13079917223413 328.24577852835046 221.786450271864 328.5766378421897Q222.44210137149386 328.9074971560289 223.37897964902086 328.7384909635447Q224.24893804958165 328.58155664195215 224.68142386920084 328.1062283177084Q225.11390968882 327.6308999934647 225.00828081851736 327.0453510700103Q224.89963398049179 326.44307217731443 224.31146052961074 326.24687268272106Q223.7232870787297 326.0506731881277 222.55107368825574 325.9684675484578Q221.482258080954 325.88488407169183 220.7883577977258 325.72503133653913Q220.0944575144976 325.5651786013864 219.53629940935957 325.1044487134165Q218.9781413042215 324.6437188254466 218.8181890149061 323.75703045564427Q218.69143437054294 323.05437174749903 219.00405473127913 322.3933736309713Q219.31667509201532 321.7323755144436 220.02438533880667 321.25058462973686Q220.73209558559805 320.7687937450301 221.71916377084972 320.5907336493771Q223.24159097183113 320.3160985865902 224.31729576461305 320.9166709792175Q225.39300055739494 321.51724337184476 225.70135785219577 322.8435690402773L224.1789306512144 323.11820410306416Q223.99896813140361 322.4078693288462 223.39350693949842 322.06795611183816Q222.78804574759323 321.72804289483014 221.90135737779087 321.88799518414555Q221.08158888495473 322.03587560256926 220.65979709913125 322.4747260206069Q220.23800531330778 322.9135764386446 220.34061621588748 323.4823953928574Q220.42210134440668 323.9341045623794 220.7676902412852 324.1740645889553Q221.1132791381637 324.4140246155311 221.58831198415567 324.5097131479097Q222.06334483014763 324.6054016802883 222.8888869648988 324.6810467974507Q223.9242426337174 324.7706662096625 224.59002999536034 324.9183159271581Q225.25581735700328 325.06596564465366 225.79271854131537 325.50461854648415Q226.32961972562745 325.9432714483146 226.49724808101564 326.77675194266936Q226.63305662854762 327.52960055853924 226.32345423553434 328.2073286443085Q226.01385184252106 328.8850567300778 225.3145065803505 329.3653386309231Q224.6151613181799 329.84562053176836 223.62809313292823 330.02368062742136Q222.57410507071035 330.2138125939661 221.6727203025896 330.00501664141933Q220.77133553446885 329.79622068887255 220.16997466913088 329.2396379370378Q219.5686138037929 328.68305518520305 219.36752550992162 327.85561062629415Z M237.72868657656167 322.31195670582485 230.54091888840765 324.2558990046416Q230.9824672095148 325.5629525919622 232.0131330607658 326.08549675570816Q233.0437989120168 326.6080409194542 234.22534976486403 326.2884887607446Q235.1935650470583 326.0266335195798 235.71972580154375 325.4000368706586Q236.24588655602918 324.77344022173736 236.30429508859743 323.9475489193717L237.9125170827506 323.5126029255725Q237.902107385187 324.9066677153856 237.03871121252322 326.01190673886856Q236.17531503985944 327.11714576235147 234.56709304570626 327.5520917561507Q233.28707962178842 327.89827326141943 232.12250041338646 327.5968590657387Q230.9579212049845 327.29544487005796 230.09729073156194 326.3923100859773Q229.2366602581394 325.4891753018966 228.859411181885 324.09428887839636Q228.48216210563064 322.69940245489613 228.75607031173328 321.4982353996413Q229.02997851783593 320.29706834438645 229.8861011285946 319.45795775849933Q230.74222373935325 318.6188471726123 232.05505802029464 318.26378921849044Q233.33507144421247 317.91760771322174 234.47059678542024 318.2092688170305Q235.60612212662804 318.5009299208392 236.40353540663855 319.3331081234274Q237.20094868664907 320.1652863260156 237.53381551863825 321.39606846439807Q237.64920935372783 321.82273960570404 237.72868657656167 322.31195670582485ZM232.3311595870898 319.5451451116026Q231.19884001977783 319.8513825970327 230.59821611172413 320.78869533623674Q229.9975922036704 321.72600807544086 230.22890070935676 323.03708907034434L235.9069089744282 321.5014634187676Q235.67612130424905 320.64812113615574 235.1322480324838 320.1348092287745Q234.58837476071858 319.62149732139324 233.8536174581866 319.47680383026136Q233.1188601556546 319.33211033912954 232.3311595870898 319.5451451116026Z M243.41966234466247 314.59351398803295 243.9528714467369 316.09993094673496 243.5682543508981 316.2360694408816Q241.1163203649257 317.1039523410666 242.05794494944013 319.764220587285L243.74833125176124 324.5398828606169L242.2899914300391 325.056074650923L239.18149581369022 316.2739842959369L240.63983563541237 315.7577925056308L241.14468255120624 317.1840809026997Q241.26269509600783 316.29473392920204 241.8283559258834 315.625641950813Q242.39401675575897 314.95654997242406 243.41966234466247 314.59351398803295Z M252.34968603483765 319.61838332089235 251.83528843627408 311.23339440553934 253.34599772185572 310.5723660744843 253.73198771173318 320.57226071031494 252.08110952336563 321.2946215669318 244.9981608448273 314.2250587079431 246.5244444529407 313.5572156518257Z M254.17808436207824 307.20962751943284Q253.9753320545911 306.8168737774919 254.106871509213 306.40460035865704Q254.2384109638349 305.99232693982214 254.6311647057759 305.789574632335Q255.0088125345653 305.59462049052047 255.41353299682436 305.73005902797865Q255.81825345908342 305.8654975654369 256.0210057665705 306.25825130737786Q256.2237580740577 306.6510050493188 256.09977157601156 307.05937938531736Q255.97578507796544 307.46775372131594 255.59813724917603 307.6627078631305Q255.20538350723504 307.8654601706176 254.7931100884002 307.73392071599574Q254.38083666956535 307.6023812613738 254.17808436207824 307.20962751943284ZM256.95683417270516 308.6640148440272 261.23022896128003 316.942055251091 259.8555908644866 317.651688327296 255.58219607591172 309.37364792023214Z M263.4699462680466 304.8113738674448Q264.93944590598244 303.9233086591935 266.3232817623103 304.0603107494746Q267.7071176186381 304.1973128397557 268.77762420789077 305.2784722370541L267.35177307405206 306.14015927080294Q266.70844381322365 305.53578235019626 265.8641999877218 305.46995216637487Q265.0199561622199 305.4041219825535 264.1469860802778 305.9316854726038Q263.01212497375315 306.6175180096692 262.7841596868277 307.81796712477444Q262.5561943999022 309.0184162398797 263.417881433651 310.4442673737184Q264.288361192234 311.8846680089228 265.4615443988329 312.24829029063045Q266.63472760543186 312.6119125723381 267.76958871195654 311.9260800352727Q268.6425587938986 311.3985165452224 268.97834255316985 310.6394215136159Q269.3141263124411 309.8803264820094 269.0751471415497 308.99186153848035L270.50099827538844 308.13017450473154Q270.91949813141343 309.5457725658022 270.40326364540283 310.86084222382544Q269.88702915939217 312.1759118818487 268.44662852418776 313.0463916404317Q267.3117674176631 313.7322241774971 266.12377721584215 313.7549514821649Q264.93578701402123 313.7776787868328 263.87836957820036 313.14546334378974Q262.82095214237955 312.51324790074665 262.0647778066408 311.26199078329637Q261.3173961957362 310.02528316721174 261.25374121520014 308.8024371861279Q261.1900862346641 307.57959120504404 261.762585698093 306.5383988047771Q262.33508516152193 305.49720640451017 263.4699462680466 304.8113738674448Z M279.4654458389648 300.343965745901 273.46969435237247 304.75915318371455Q274.3546462699429 305.817554857744 275.50459256787315 305.9313441888636Q276.6545388658033 306.04513351998315 277.6401418499007 305.31934928363023Q278.44778873964714 304.7246094232855 278.7112922309269 303.9499905427491Q278.97479572220664 303.1753716622128 278.730123123225 302.384395480961L280.07163829602416 301.3965224925918Q280.5668284213261 302.69971539458425 280.1623356817295 304.042619662808Q279.75784294213287 305.3855239310318 278.41632776933363 306.37339691940105Q277.3485912032282 307.15966317545 276.15391020608456 307.3004913156208Q274.959229208941 307.4413194557916 273.8299349354942 306.9111952307648Q272.70064066204736 306.381071005738 271.8438120496863 305.2175119272897Q270.9869834373252 304.05395284884145 270.8072655252797 302.8351298624772Q270.62754761323424 301.61630687611284 271.12164521556497 300.5240980776814Q271.6157428178957 299.43188927924996 272.71085724467054 298.625462349969Q273.778593810776 297.83919609392 274.94266107580154 297.69979952833853Q276.10672834082715 297.5604029627571 277.15139860535714 298.0472833776505Q278.1960688698872 298.53416379254384 278.9520941160881 299.56083356764526Q279.21418286810444 299.9167457563471 279.4654458389648 300.343965745901ZM273.43228744276473 299.7198313322038Q272.4877512496715 300.41537455870866 272.26737293954375 301.50658381931146Q272.0469946294161 302.59779307991425 272.73743837312225 303.7360920023318L277.47380826892345 300.2482955331914Q276.9496307648908 299.5364711557878 276.2567727440926 299.25498401040534Q275.5639147232943 298.9734968650229 274.826635411062 299.10473601982903Q274.0893560988297 299.2359751746352 273.43228744276473 299.7198313322038Z M282.5378164254366 299.54731072570934 283.7387907878115 298.4931453777121Q284.2496916039539 298.97211652096087 284.9820523970376 298.9173998072996Q285.7144131901212 298.8626830936384 286.42988727834455 298.2346696948315Q287.094256074552 297.65151439593944 287.2196116901617 297.02122321748686Q287.3449673057714 296.3909320390343 286.95245893151707 295.9437607338947Q286.54873603228407 295.4838131057511 285.94363950902925 295.6190922524995Q285.3385429857745 295.75437139924793 284.29188241986947 296.28854708175265Q283.3330943169671 296.76821193738914 282.6561662191651 296.98916181950307Q281.97923812136304 297.210111701617 281.26341717694584 297.10328064090146Q280.5475962325286 296.9964495801859 279.95322640865777 296.3193044609745Q279.48221635955264 295.78269889480697 279.40911606039805 295.05516446520005Q279.33601576124346 294.3276300355931 279.6938288573637 293.5498472649914Q280.05164195348397 292.7720644943897 280.80544501071927 292.11040752064673Q281.96809040408226 291.0898857475856 283.19943264132553 291.0495832069622Q284.4307748785688 291.0092806663388 285.3790421688803 291.9865284067431L284.21639677551735 293.00705017980425Q283.6958432324215 292.49131186556883 283.0018114083498 292.512385004294Q282.30777958427814 292.5334581430192 281.63063446506675 293.1278279668899Q281.0045946378713 293.67733969084594 280.86958629530824 294.2708636983118Q280.73457795274516 294.86438770577774 281.11587180202076 295.29878268791333Q281.4186639764455 295.64374340902106 281.8385038161424 295.67107487446367Q282.2583436558394 295.69840633990634 282.71466872772135 295.5353728195128Q283.17099379960337 295.3723392991193 283.91726980551385 295.01134882417256Q284.85050526240826 294.5541130184934 285.4970543507256 294.33720860084355Q286.1436034390429 294.1203041831937 286.82982627298816 294.219185284382Q287.51604910693334 294.3180663855702 288.08955167887206 294.94566801079094Q288.5942053029133 295.5206025459704 288.67852012704657 296.2609132985814Q288.7628349511798 297.0012240511923 288.41141001656155 297.7733995593046Q288.0599850819433 298.54557506741696 287.306182024708 299.20723204115995Q286.50127367545673 299.9137471148177 285.6213452382154 300.1997824191666Q284.74141680097404 300.48581772351554 283.93914422217864 300.3191505122441Q283.13687164338324 300.1524833009727 282.5378164254366 299.54731072570934Z"/>
<path d="M200 146 L240 182 L231 182 L231 214 L169 214 L169 182 L160 182 Z M194 194 L194 214 L206 214 L206 194 Z" fill-rule="evenodd"/>
<rect x="196" y="213" width="8" height="75"/>
<rect x="192" y="222" width="16" height="4" rx="1"/>
<rect x="192" y="230" width="16" height="3" rx="1"/>
<path d="M197 266 L181 266 L181 273 L188 273 L188 277 L181 277 L181 288 L197 288 Z"/>
<rect x="119" y="168" width="1.6" height="112"/>
<rect x="279.4" y="168" width="1.6" height="112"/>
</g></svg>